<?xml version="1.0" standalone="no"?>
<!DOCTYPE svg PUBLIC "-//W3C//DTD SVG 20010904//EN"
 "http://www.w3.org/TR/2001/REC-SVG-20010904/DTD/svg10.dtd">
<svg version="1.0" xmlns="http://www.w3.org/2000/svg"
 width="310.000000pt" height="310.000000pt" viewBox="0 0 310.000000 310.000000"
 preserveAspectRatio="xMidYMid meet">
<metadata>
Created by potrace 1.14, written by Peter Selinger 2001-2017
</metadata>
<g transform="translate(0.000000,310.000000) scale(0.100000,-0.100000)"
fill="#000000" stroke="none">
<path d="M175 3091 c-3 -5 -19 -13 -36 -16 -43 -10 -106 -75 -115 -120 -3 -19
-10 -38 -15 -41 -5 -3 -9 -240 -9 -542 1 -456 3 -540 15 -556 8 -11 15 -28 15
-38 0 -29 73 -94 125 -112 43 -14 112 -16 563 -16 581 0 596 2 663 69 68 67
69 80 69 650 0 546 -3 579 -53 645 -14 18 -48 44 -77 59 l-52 27 -543 0 c-322
0 -546 -4 -550 -9z m599 -331 c40 -15 51 -46 56 -170 l5 -115 110 -3 c122 -2
152 -12 171 -57 16 -39 8 -78 -23 -107 -22 -21 -37 -24 -141 -28 l-117 -5 -5
-115 c-5 -126 -15 -155 -61 -174 -43 -18 -85 -8 -114 26 -23 28 -25 37 -25
143 0 94 -3 114 -16 119 -9 3 -63 6 -121 6 -102 0 -105 1 -134 29 -38 39 -39
87 -3 130 l26 31 108 0 c60 0 115 3 124 6 13 5 16 24 16 110 0 113 8 142 48
167 31 19 60 21 96 7z"/>
<path d="M1820 3090 c-8 -5 -32 -17 -54 -26 -49 -22 -91 -81 -105 -145 -7 -32
-11 -233 -11 -557 0 -432 3 -514 16 -552 25 -72 45 -97 98 -127 l51 -28 520
-3 c545 -4 596 0 663 40 39 24 82 84 82 115 0 13 5 23 10 23 7 0 10 186 10
538 l0 538 -30 60 c-34 65 -54 85 -119 114 -42 19 -65 20 -580 19 -296 0 -543
-4 -551 -9z m919 -649 c54 -50 37 -127 -35 -157 -26 -11 -99 -14 -333 -14
-167 0 -311 4 -325 10 -46 17 -66 46 -66 94 0 37 5 48 31 70 l31 26 333 0 333
0 31 -29z"/>
<path d="M151 1432 c-52 -18 -118 -80 -126 -119 -4 -16 -10 -36 -16 -45 -5
-11 -9 -235 -9 -544 l0 -527 29 -62 c33 -69 37 -73 105 -109 l49 -26 539 0
c322 0 545 4 556 10 9 5 34 17 55 26 47 21 82 66 102 130 23 75 22 1042 -1
1121 -23 78 -81 137 -152 152 -36 7 -222 11 -570 10 -433 -1 -524 -4 -561 -17z
m444 -432 c66 -66 127 -120 135 -120 8 0 69 54 135 120 114 112 124 120 161
120 22 0 49 -7 62 -15 24 -17 41 -67 34 -103 -2 -12 -58 -77 -123 -144 -66
-66 -119 -126 -119 -131 0 -6 54 -66 120 -132 117 -119 120 -123 120 -167 0
-61 -33 -93 -96 -93 -43 0 -47 3 -166 123 -68 67 -126 122 -130 122 -3 0 -61
-54 -129 -121 -67 -66 -134 -125 -147 -130 -33 -13 -88 6 -109 37 -11 17 -14
37 -10 66 5 37 19 55 126 162 67 67 121 126 121 131 0 5 -56 66 -125 135 -118
120 -125 129 -125 167 0 46 28 89 63 96 57 12 80 -2 202 -123z"/>
<path d="M1796 1430 c-61 -24 -93 -53 -120 -110 -20 -44 -21 -59 -24 -577 -2
-469 -1 -539 13 -580 23 -67 55 -105 115 -136 l52 -27 543 0 c322 0 546 4 550
9 3 5 19 13 36 16 43 10 106 75 115 120 3 19 10 38 15 41 5 3 9 240 9 542 -1
456 -3 540 -15 556 -8 11 -15 28 -15 37 0 10 -17 35 -38 58 -65 70 -79 71
-672 70 -476 -1 -519 -2 -564 -19z m905 -401 c48 -16 69 -44 69 -91 0 -31 -6
-45 -32 -69 l-32 -29 -332 0 -332 0 -31 26 c-25 21 -31 33 -31 66 0 51 14 75
53 92 41 18 615 22 668 5z m-16 -359 c83 -19 113 -104 56 -161 l-29 -29 -339
0 -339 0 -27 28 c-52 54 -31 131 43 161 32 12 581 14 635 1z"/>
</g>
</svg>
